<!-- AniVault - Manga Badge (rounded square, indigo gradient) -->
<svg xmlns="http://www.w3.org/2000/svg" viewBox="0 0 48 48" aria-label="Manga">
  <defs>
    <linearGradient id="mg" x1="0" y1="0" x2="1" y2="1">
      <stop offset="0" stop-color="#1e3a8a"/>
      <stop offset="1" stop-color="#3b82f6"/>
    </linearGradient>
    <filter id="inset" x="-50%" y="-50%" width="200%" height="200%">
      <feOffset dx="0" dy="1" />
      <feGaussianBlur stdDeviation="1.2" result="b"/>
      <feComposite in="b" in2="SourceAlpha" operator="out" result="cut"/>
      <feColorMatrix type="matrix" values="0 0 0 0 0   0 0 0 0 0   0 0 0 0 0   0 0 0 .35 0" />
      <feComposite in2="SourceGraphic" operator="atop"/>
    </filter>
  </defs>

  <!-- rounded badge -->
  <rect x="3" y="3" width="42" height="42" rx="12" fill="url(#mg)" filter="url(#inset)"/>
  <!-- subtle top highlight -->
  <rect x="3" y="3" width="42" height="21" rx="12" fill="#ffffff" fill-opacity=".06"/>

  <!-- book outline glyph (shifted down) -->
  <path d="M24 16.5a11.96 11.96 0 0 0-8-2.75c-1.3 0-2.55.22-3.75.63v17.7A11.98 11.98 0 0 1 16 30c3.1 0 5.93 1.17 8 3.08m0-16.58a11.96 11.96 0 0 1 8-2.75c1.3 0 2.55.22 3.75.63v17.7A11.98 11.98 0 0 0 32 30c-3.1 0-5.93 1.17-8 3.08m0-16.58v16.58"
        fill="none" stroke="#fff" stroke-width="2.5" stroke-linecap="round" stroke-linejoin="round"/>
</svg>

